<svg width="16" height="19" viewBox="0 0 16 19" fill="none" xmlns="http://www.w3.org/2000/svg">
<path d="M8.00501 4.91492C7.457 4.91492 6.92129 5.06119 6.46564 5.33524C6.00998 5.60929 5.65484 5.9988 5.44512 6.45452C5.23541 6.91025 5.18054 7.41172 5.28745 7.89551C5.39436 8.37931 5.65825 8.8237 6.04576 9.1725C6.43326 9.52129 6.92697 9.75883 7.46446 9.85506C8.00194 9.95129 8.55906 9.9019 9.06535 9.71314C9.57165 9.52437 10.0044 9.2047 10.3089 8.79456C10.6133 8.38442 10.7758 7.90222 10.7758 7.40895C10.775 6.74772 10.4828 6.11379 9.96334 5.64623C9.4439 5.17867 8.73962 4.91567 8.00501 4.91492ZM8.00501 8.65597C7.73101 8.65597 7.46315 8.58283 7.23532 8.44581C7.0075 8.30878 6.82993 8.11402 6.72507 7.88616C6.62021 7.6583 6.59277 7.40757 6.64623 7.16567C6.69969 6.92377 6.83163 6.70157 7.02539 6.52718C7.21914 6.35278 7.46599 6.23401 7.73473 6.18589C8.00348 6.13778 8.28203 6.16247 8.53518 6.25686C8.78833 6.35124 9.0047 6.51107 9.15693 6.71614C9.30916 6.92122 9.39042 7.16231 9.39042 7.40895C9.38999 7.73956 9.24389 8.05652 8.98417 8.2903C8.72445 8.52408 8.37231 8.65558 8.00501 8.65597Z" fill="white"/>
<path d="M13.3294 2.61275C12.0129 1.4281 10.2556 0.724371 8.39663 0.637382C6.53764 0.550392 4.70874 1.08631 3.26291 2.1417C1.81709 3.19709 0.856836 4.69714 0.567481 6.35233C0.278127 8.00752 0.680184 9.70052 1.69606 11.1046L6.93058 18.3378C7.04707 18.4987 7.20634 18.631 7.39396 18.7225C7.58158 18.814 7.79162 18.862 8.00503 18.862C8.21844 18.862 8.42847 18.814 8.61609 18.7225C8.80371 18.631 8.96299 18.4987 9.07947 18.3378L14.3142 11.1046C15.2568 9.80211 15.6734 8.24758 15.4941 6.70154C15.3148 5.1555 14.5505 3.71191 13.3294 2.61275ZM13.1534 10.4239L8.00505 17.5377L2.85668 10.4239C1.28078 8.24634 1.61878 5.33222 3.66034 3.49451C4.23089 2.98093 4.90824 2.57355 5.6537 2.2956C6.39917 2.01766 7.19816 1.8746 8.00505 1.8746C8.81194 1.8746 9.61093 2.01766 10.3564 2.2956C11.1019 2.57355 11.7792 2.98093 12.3498 3.49451C14.3913 5.33222 14.7293 8.24634 13.1534 10.4239Z" fill="white"/>
</svg>
