<svg width="22" height="19" viewBox="0 0 22 19" fill="none" xmlns="http://www.w3.org/2000/svg">
<path d="M19.1658 4.19196H2.73797C2.37489 4.19196 2.02669 4.31088 1.76995 4.52256C1.51322 4.73424 1.36899 5.02135 1.36899 5.32071V14.3508C1.36899 14.6501 1.51322 14.9372 1.76995 15.1489C2.02669 15.3606 2.37489 15.4795 2.73797 15.4795H19.1658C19.5289 15.4795 19.8771 15.3606 20.1338 15.1489C20.3905 14.9372 20.5348 14.6501 20.5348 14.3508V5.32071C20.5348 5.02135 20.3905 4.73424 20.1338 4.52256C19.8771 4.31088 19.5289 4.19196 19.1658 4.19196ZM17.6599 5.32071L10.9519 9.1472L4.24385 5.32071H17.6599ZM2.73797 14.3508V5.8343L10.5617 10.2985C10.6763 10.3641 10.8124 10.3992 10.9519 10.3992C11.0913 10.3992 11.2275 10.3641 11.342 10.2985L19.1658 5.8343V14.3508H2.73797Z" fill="white"/>
</svg>
